# xmcd
#
# Track frame offsets:
#	150
#	8902
#	19720
#	31378
#	43009
#	53981
#	62753
#	73745
#	84145
#	92457
#	104418
#	118440
#	127800
#	140165
#	153524
#	165795
#	180028
#	192443
#	203952
#	213760
#	226803
#	238210
#	250028
#	261017
#	272369
#	283745
#	292838
#	304326
#
# Disc length: 4212 seconds
#
# Revision: 1
# Processed by: cddbd v1.5.2PL0 Copyright (c) Steve Scherf et al.
# Submitted via: EZCDAudioConverter 2.1.3.1
#
DISCID=8010721c
DTITLE=BARRIER BROTHERS - BLUEGRASS CLASSICS
DYEAR=1900
DGENRE=Bluegrass
TTITLE0=BLUE MOON OF KENTUCKY
TTITLE1=GOTTA TRAVEL ON
TTITLE2=POLKA ON A BANJO
TTITLE3=CRYING MY HEART OUT OVER YOU
TTITLE4=MY LITTLE GEORGIA ROSE
TTITLE5=SALTY DOG BLUES
TTITLE6=EARL'S BREAKDOWN
TTITLE7=CABIN IN THE HILLS
TTITLE8=FLINT HILL SPECIAL
TTITLE9=STONE WALL AROUND YOUR HEART
TTITLE10=BEFORE I MET YOU
TTITLE11=BREAKING IN A BRAND NEW PAIR OF SHOES
TTITLE12=SMOKE ALONG THE TRACK
TTITLE13=SOMEDAY WE'LL MEET AGAIN SWEETHEART
TTITLE14=I'LL GO STEPPIN' TOO
TTITLE15=DON'T THIS ROAD LOOK ROUGH AND ROCKY
TTITLE16=JIMMY BROWN THE NEWSBOY
TTITLE17=SHUCKIN' THE CORN
TTITLE18=BLUE RIDGE MOUNTAIN HOME
TTITLE19=LITTLE CABIN ON THE HILL
TTITLE20=AIN'T GONNA WORK TOMORROW
TTITLE21=WHIPPOORWILL
TTITLE22=DESTROYED
TTITLE23=DEAR OLD DIXIE
TTITLE24=WILL I BE THAT LUCKY MAN
TTITLE25=SOMEDAY SWEETHEART YOU'LL BE CRYING
TTITLE26=PLEASE DON'T LEAVE ME HERE ALONE
TTITLE27=WILD CHORD BREAKDOWN
EXTD=
EXTT0=
EXTT1=
EXTT2=
EXTT3=
EXTT4=
EXTT5=
EXTT6=
EXTT7=
EXTT8=
EXTT9=
EXTT10=
EXTT11=
EXTT12=
EXTT13=
EXTT14=
EXTT15=
EXTT16=
EXTT17=
EXTT18=
EXTT19=
EXTT20=
EXTT21=
EXTT22=
EXTT23=
EXTT24=
EXTT25=
EXTT26=
EXTT27=
PLAYORDER=
